<svg xmlns="http://www.w3.org/2000/svg"  viewBox="0 0 48 48" width="48px" height="48px"><linearGradient id="SVGID_1_" x1="41.541" x2="8.466" y1="10.4" y2="43.474" gradientUnits="userSpaceOnUse"><stop offset="0" stop-color="#60affe"/><stop offset=".033" stop-color="#6ab4fe"/><stop offset=".197" stop-color="#97cbfe"/><stop offset=".362" stop-color="#bddeff"/><stop offset=".525" stop-color="#daecff"/><stop offset=".687" stop-color="#eef7ff"/><stop offset=".846" stop-color="#fbfdff"/><stop offset="1" stop-color="#fff"/></linearGradient><path fill="url(#SVGID_1_)" d="M45.574,40.144L44.383,34.5l-1.093-5.182l-0.248-1.173c-0.156-0.863-0.853-1.506-1.702-1.62V11.015	c0-1.087-0.89-1.977-1.977-1.977H8.723c-1.087,0-1.977,0.89-1.977,1.977v22.733H2.793c-0.593,0-0.988,0.395-0.988,0.988	c0,2.768,2.174,4.942,4.942,4.942h16.778l-0.098,0.465c-0.222,1.227,0.721,2.356,1.968,2.356h18.212	C44.853,42.5,45.796,41.371,45.574,40.144z"/><path fill="none" stroke="#2e9bfe" stroke-linecap="round" stroke-linejoin="round" stroke-width="3" d="M20.223,33.5H8.5c-1.1,0-2-0.9-2-2v-21c0-1.1,0.9-2,2-2h31c1.1,0,2,0.9,2,2v5.2v2.704"/><path fill="none" stroke="#2e9bfe" stroke-linecap="round" stroke-linejoin="round" stroke-width="3" d="M17.702,39.5H6.5c-2.8,0-5-2.2-5-5l0,0c0-0.6,0.4-1,1-1h8.3"/><path fill="none" stroke="#2e9bfe" stroke-linecap="round" stroke-linejoin="round" stroke-width="3" d="M18,33.5h6.234"/><path fill="none" stroke="#2e9bfe" stroke-linecap="round" stroke-linejoin="round" stroke-miterlimit="10" stroke-width="3" d="M26.191,42.5h-0.797c-1.247,0-2.19-1.129-1.968-2.356l2.532-12c0.172-0.952,1.001-1.644,1.968-1.644h13.148 c0.967,0,1.796,0.692,1.968,1.644l0.248,1.173"/><path fill="none" stroke="#2e9bfe" stroke-linecap="round" stroke-linejoin="round" stroke-miterlimit="10" stroke-width="3" d="M44.383,34.5l1.191,5.644c0.222,1.227-0.721,2.356-1.968,2.356H31.681"/><path fill="none" stroke="#2e9bfe" stroke-linecap="round" stroke-miterlimit="10" stroke-width="3" d="M30.059,25.697c0,0,0,1.196,0-1.257S32.048,20,34.5,20s4.441,1.988,4.441,4.441c0,1.117,0,1.257,0,1.257"/></svg>